<svg width="24" height="24" viewBox="0 0 24 24" fill="none" xmlns="http://www.w3.org/2000/svg">
<path d="M21 16.8104V5.83332C21 4.73418 20.1254 3.93483 19.0533 4.02048H18.9969C17.1066 4.17749 14.243 5.16245 12.6348 6.17594L12.4797 6.27587C12.2257 6.43289 11.7884 6.43289 11.5203 6.27587L11.2947 6.13312C9.70063 5.11963 6.83699 4.16321 4.94671 4.00619C3.87461 3.92054 3 4.73421 3 5.81908V16.8104C3 17.6812 3.70531 18.5091 4.56581 18.609L4.81972 18.6518C6.76642 18.9088 9.7853 19.9223 11.5063 20.8787L11.5486 20.8929C11.7884 21.0357 12.1834 21.0357 12.4091 20.8929C14.1301 19.9223 17.163 18.9231 19.1238 18.6518L19.4201 18.609C20.2947 18.5091 21 17.6954 21 16.8104Z" stroke="#9FA8B4" stroke-width="1.5" stroke-linecap="round" stroke-linejoin="round"/>
<path d="M12 6V20" stroke="#9FA8B4" stroke-width="1.5" stroke-linecap="round" stroke-linejoin="round"/>
</svg>
